# xmcd
#
# Track frame offsets: 
#        150
#        14740
#        29965
#        45590
#        57256
#        72248
#        83487
#        109930
#        126417
#
# Disc length: 1924 seconds
#
# Revision: 0
# Processed by: cddbd v1.5.2PL0 Copyright (c) Steve Scherf et al.
# Submitted via: ExactAudioCopyFreeDBPlugin 1.0
#
DISCID=80078209
DTITLE=Cuby and The Blizzards - Trippin' Thru A Midnight Blues
DYEAR=1968
DGENRE=Blues
TTITLE0=Checking' On My Baby
TTITLE1=Down The Road
TTITLE2=Window Of My Eyes
TTITLE3=Trippin' Thru A Midnight Blues
TTITLE4=Big Blue-Eyed Girl
TTITLE5=Going Home
TTITLE6=The Sky Is Crying
TTITLE7=Feelin' Low Down
TTITLE8=Feel So Bad
EXTD=
EXTT0=
EXTT1=
EXTT2=
EXTT3=
EXTT4=
EXTT5=
EXTT6=
EXTT7=
EXTT8=
PLAYORDER=
